# xmcd
#
# Track frame offsets: 
#        150
#        18524
#        34268
#        51949
#        66317
#        83639
#        103305
#        118768
#        133445
#        154071
#
# Disc length: 2285 seconds
#
# Revision: 3
# Processed by: cddbd v1.5.2PL0 Copyright (c) Steve Scherf et al.
# Submitted via: ExactAudioCopyFreeDBPlugin 1.0
#
DISCID=9008eb0a
DTITLE=Lou Rawls - When You Heard Lou, You've Heard It All
DYEAR=1977
DGENRE=Soul
TTITLE0=Lady Love
TTITLE1=I Wish it Were Yesterday
TTITLE2=One Life to Live
TTITLE3=Dollar Green
TTITLE4=Trade Winds
TTITLE5=There Will Be Love
TTITLE6=Unforgettable
TTITLE7=That Would Do it for Me
TTITLE8=If I Coulda, Woulda, Shoulda
TTITLE9=Not the Staying Kind
EXTD=
EXTT0=
EXTT1=
EXTT2=
EXTT3=
EXTT4=
EXTT5=
EXTT6=
EXTT7=
EXTT8=
EXTT9=
PLAYORDER=
